<svg xmlns="http://www.w3.org/2000/svg" width="1296" height="1080" viewBox="0 0 1296 1080">
  <defs>
    <style>
      .cls-1 {
        fill: #fff;
        fill-rule: evenodd;
      }
    </style>
  </defs>
  <path id="M" class="cls-1" d="M2271.01,1078.95V1080h-457.5v-1.05c123,0,144-39.07,144-97.673V66.118h-6L1552.96,1080h-9.89L1147.51,66.118h-6V849.037c0,93.169,7.5,229.913,150,229.913V1080h-316.5v-1.05c145.5,0,157.5-130.733,157.5-225.405V177.32c0-99.18,0-171.311-157.5-171.311V0h328.5l331.5,849.039L1969.51,0h301.5V6.009c-135,0-145.5,46.584-145.5,105.191V981.277C2125.51,1039.88,2136.01,1078.95,2271.01,1078.95Z" transform="translate(-975)"/>
</svg>
