<svg xmlns="http://www.w3.org/2000/svg" width="1155" height="1080" viewBox="0 0 1155 1080">
  <defs>
    <style>
      .cls-1 {
        fill: #fff;
        fill-rule: evenodd;
      }
    </style>
  </defs>
  <path class="cls-1" d="M1920.01,1079.98V1080H1464.29v-0.02c122.52,0,143.44-25.57,143.44-97.771V182L1077.29,908.505v73.7c0,72.2,20.92,97.771,143.44,97.771V1080H765.007v-0.02c134.477,0,144.936-39.11,144.936-97.771V111.3c0-58.663-10.459-105.292-144.936-105.292V0H1220.73V6.012c-122.52,0-143.44,34.6-143.44,105.292V891.959l530.44-728.011V111.3c0-70.7-20.92-105.292-143.44-105.292V0h455.72V6.012c-134.47,0-144.93,46.629-144.93,105.292V982.209C1775.08,1040.87,1785.54,1079.98,1920.01,1079.98Z" transform="translate(-765)"/>
</svg>
