<svg xmlns="http://www.w3.org/2000/svg" width="960" height="1150" viewBox="0 0 960 1150">
  <defs>
    <style>
      .cls-1 {
        fill: #f9f6f5;
        fill-rule: evenodd;
      }
    </style>
  </defs>
  <path class="cls-1" d="M1796.42,5778.19c189.39-73.05,360.95-139.23,395.83-152.68a673.246,673.246,0,0,1,116.37,352.39C2242.63,5952.17,2025.42,5867.49,1796.42,5778.19Zm-639.63-249.53C1278.93,5405.94,1447.87,5330,1634.51,5330s355.59,75.94,477.74,198.66c-45.53,17.83-251.12,98.03-477.72,186.4C1407.89,5626.68,1202.28,5546.47,1156.79,5528.66Zm315.84,249.53c-229.04,89.31-446.3,174.02-512.238,199.72A673.293,673.293,0,0,1,1076.78,5625.5C1111.61,5638.93,1283.2,5705.12,1472.63,5778.19Zm-395.77,608.43A673.505,673.505,0,0,1,960,6021.84c72.43,28.71,289.98,114.94,517.34,205.08Zm557.67-97.38c237.13,94.03,450.45,178.64,480.93,190.84C1993.07,6604.71,1822.8,6682,1634.51,6682s-358.55-77.29-480.94-201.91C1183.97,6467.92,1397.33,6383.29,1634.53,6289.24Zm0-448.59c216.2,83.4,412.04,158.98,412.32,159.17l-412.32,164.42L1222.2,5999.82C1222.49,5999.63,1418.33,5924.05,1634.53,5840.65Zm674.48,181.21a673.572,673.572,0,0,1-116.84,364.75l-400.46-159.69C2019.03,6136.8,2236.52,6050.59,2309.01,6021.86Z" transform="translate(-960 -5330)"/>
</svg>
