<svg xmlns="http://www.w3.org/2000/svg" width="536" height="680">
  <path d="M293.85 0C97.95 0 0 174.07 0 354.5 0 540.37 114.27 680 297.47 680 425.35 680 532.36 579.36 536 445.17c0-8.16-4.53-15.41-14.51-15.41-5.44 0-12.7 5.44-13.6 19.04-10.89 124.21-81.62 222.13-196.8 222.13S107.02 554.88 107.02 342.72c0-205.82 71.65-336.38 196.8-336.38 72.55 0 175.04 67.1 212.22 245.71h4.53L499.72.9h-4.54c-4.53 26.3-17.23 40.8-34.46 40.8C426.26 41.7 367.3 0 293.84 0z" fill="#002230" fill-rule="evenodd"/>
</svg>
