<svg xmlns="http://www.w3.org/2000/svg" width="534" height="715">
  <path d="M498.72 251.67h-.01C464.36 71.5 356.55 5.7 257.33 5.7c-41.1 0-84.66 17.2-112.56 50.76-.42.5-.85 1.02-1.26 1.54l-.26.32c-17.05 21.5-27.8 49.43-27.8 83.57 0 66.3 36.82 102.25 88.62 127l.41.2 3.52 1.64c60.5 27.73 140.06 41.33 205.43 69.8h-.44c68.15 29.63 121.02 75.35 121.02 170.06 0 144.23-141.11 204.4-257.43 204.4C118.12 715 .72 616.69 0 472.72c0-8.47.91-23.59 18.95-23.59 11.99 0 13.64 15.6 14.98 26.15 1.89 159.39 128.71 234.98 242.64 234.95 87.71-.14 171.62-51.58 171.62-145.19 0-168.92-233.64-140.9-347.75-232.58-37.06-29.58-61.6-71.67-61.6-137.02 0-57.15 18.63-100.85 48.91-132.22l.73-.74c.72-.74 1.44-1.48 2.17-2.2a173.43 173.43 0 0115.08-13.33h.14c40.09-31.24 94.24-46 151.45-46 110.67 0 132.62 44.8 185.09 44.8 21.94 0 36.25-26.69 39.12-45.76h3.8l3.22 46.95h.05l13.93 204.8h-3.81l-.01-.05z" fill="#00020e" fill-rule="evenodd"/>
</svg>
