<svg xmlns="http://www.w3.org/2000/svg" width="480" height="864" viewBox="0 0 480 864">
  <defs>
    <style>
      .cls-1 {
        fill: #928381;
        fill-rule: evenodd;
      }
    </style>
  </defs>
  <path id="ShapeF" class="cls-1" d="M1675.82,7974.91c-35.9-140.42-68.45-181.37-218.71-181.37h-50.93c-15.86,0-31.72,6.68-31.72,53.49v188.96h0.03v41.73h63.42c62.6,0,118.54-35.11,119.37-142.09h3.34v285.85h-3.34c-0.83-108.66-62.61-140.42-119.37-140.42h-63.42v401.8h0.46v99.41c0,39.32,12.48,54.37,89.05,54.37v3.35H1201.01v-3.35c74.9,0,80.73-21.75,80.73-54.37V8391.99H1281V8244h-0.04V7847.03c0-37.61-7.51-55.16-80.97-55.16v-3.35h406.54c15.86,0,40.91-1.67,47.59-12.53h4.17l21.7,198.92h-4.17Z" transform="translate(-1200 -7776)"/>
</svg>
