<svg xmlns="http://www.w3.org/2000/svg" width="780.53" height="237" viewBox="0 0 780.53 237">
  <defs>
    <style>
      .cls-1 {
        fill: #1e0e00;
        fill-rule: evenodd;
      }
    </style>
  </defs>
  <path id="НАША_РЕПУТАЦИЯ_самый_ценный_актив_copy_2" data-name="НАША РЕПУТАЦИЯ  самый ценный  актив copy 2" class="cls-1" d="M4260.99,270.423c-6.77,0-7.29-1.956-7.29-4.89V243.944h6.54c11.81,0,7.9,27.532,24.68,27.532a6.918,6.918,0,0,0,6.32-3.761c-0.15-.151-0.3-0.151-0.45-0.3-0.98,1.73-2.03,2.407-3.16,2.407-7.53,0-6.02-22.718-23.93-25.877,11.66-.377,19.41-5.492,19.41-13.842,0-9.027-7.75-13.691-18.35-13.691h-26.79v0.3c6.77,0,7.3,2.031,7.3,4.965v43.856c0,2.934-.53,4.89-7.3,4.89v0.3h23.02v-0.3Zm2.56-53.56c6.32,0,11.06,5.867,11.06,13.464s-4.74,13.165-13.47,13.165h-7.44v-21.74c0-3.009.9-4.889,3.53-4.889h6.32Zm29.63-.452v0.3c6.62,0,7.3,1.579,7.3,4.965v43.856c0,2.934-.52,4.89-7.3,4.89v0.3h43.04l2.18-19.634h-0.3c-4.66,18.806-8.28,19.257-20.16,19.257h-5.8c-1.95,0-3.23-1.278-3.23-4.814V242.739h5.72c5.11,0,10.68,2.784,10.76,12.639h0.3V229.65h-0.3c-0.08,9.855-5.65,12.713-10.76,12.713h-5.72V221.677c0-4.213,1.43-4.814,2.86-4.814h6.02c12.49,0,15.34,5.039,18.28,16.323h0.38l-1.96-17.9h-0.38c-0.82,1.129-4.21,1.129-6.01,1.129h-34.92Zm86.97,15.2c0,8.048-3.84,16.549-12.11,16.549-6.62,0-8.58-3.009-8.58-8.049v-18.43c0-4.063,3.01-4.814,5.27-4.814h4.44C4375.64,216.863,4380.15,223.708,4380.15,231.607Zm-36.42-15.2v0.3c6.78,0,7.3,2.031,7.3,4.965v43.856c0,2.934-.52,4.89-7.3,4.89v0.3h23.71v-0.3c-6.85,0-7.98-1.354-7.98-4.89V246.125a18.336,18.336,0,0,0,9.93,2.557c11.66,0,19.34-7.673,19.34-17.075,0-9.328-7.68-15.2-17.98-15.2h-27.02Zm95.17,8.275c0-3.536.3-7.974,7.9-7.974v-0.3h-16.32v0.3c7.29,0,7.97,4.438,7.97,7.974v29.789c0,9.628-6.62,15.8-15.27,15.8-8.13,0-15.12-5.942-15.12-15.8v-32.5c0-2.934.52-5.266,7.37-5.266v-0.3h-23.1v0.3c6.77,0,7.3,2.332,7.3,5.266v32.5c0,11.434,8.65,17.377,19.64,17.377,10.68,0,19.63-5.642,19.63-17.377V224.686Zm39.57-4.438c0-2.784.22-3.385,1.58-3.385h1.88c11.89,0,14.37,5.867,17.08,16.323h0.3l-1.96-17.9h-0.3c-0.68.978-3.23,1.129-4.66,1.129h-36.27c-1.35,0-3.91-.151-4.59-1.129h-0.3l-1.96,17.9h0.3c3.32-11.66,5.72-16.323,17.01-16.323h1.8c1.51,0,1.66.526,1.66,3.385v45.285c0,2.934-.53,4.89-7.3,4.89v0.3h23.03v-0.3c-6.78,0-7.3-1.956-7.3-4.89V220.248Zm55.37,45.812a5.866,5.866,0,0,1,.45,1.88c0,1.2-.68,2.483-6.47,2.483v0.3h21.06v-0.3c-3.46,0-5.19-1.053-6.54-4.289l-20.84-50.852h-0.23l-17.23,43.029c-1.96,4.966-4.66,12.112-10.38,12.112v0.3h15.95v-0.3c-6.85,0-7.22-3.084-7.22-5.191,0-.6.15-2.031,2.18-7.146l2.78-6.921h20.54Zm-16.11-40.922,10.01,25.575H4507.5Zm56.2-4.89c0-2.784.22-3.385,1.58-3.385h1.88c11.89,0,14.37,5.867,17.08,16.323h0.3l-1.96-17.9h-0.3c-0.67.978-3.23,1.129-4.66,1.129h-36.27c-1.35,0-3.91-.151-4.59-1.129h-0.3l-1.95,17.9h0.3c3.31-11.66,5.71-16.323,17-16.323h1.81c1.5,0,1.65.526,1.65,3.385v45.285c0,2.934-.53,4.89-7.3,4.89v0.3h23.03v-0.3c-6.77,0-7.3-1.956-7.3-4.89V220.248Zm23.92-3.461c6.84,0,7.37,2.332,7.37,5.266v43.48c0,2.934-.6,4.89-7.37,4.89v0.3h23.17v-0.3c-6.85,0-7.37-1.956-7.37-4.89V221.978c0-2.934.52-5.266,7.37-5.266v-0.3h-23.17v0.376Zm77.56,26.78c0-15.872-9.26-28.134-24.6-28.134-15.28,0-24.61,12.262-24.61,28.134,0,15.948,9.33,28.134,24.61,28.134C4666.15,271.7,4675.41,259.515,4675.41,243.567Zm-8.73,0c0,16.023-5.87,27.758-15.87,27.758-9.94,0-15.81-11.735-15.81-27.758,0-15.948,5.87-27.757,15.81-27.757C4660.81,215.81,4666.68,227.619,4666.68,243.567Zm56.87,15.2-28.14-42.352h-15.87v0.3c6.02,0.075,7.97,1.881,7.97,5.567v36.258c0,4.814-.45,11.886-7.97,11.886v0.3h15.87v-0.3c-6.47,0-7.52-7.072-7.52-11.886V220.925h0.3l33.25,49.8H4724V228.372c0-4.664.45-11.66,7.98-11.66v-0.3H4716.1v0.3c7.15,0,7.45,7,7.45,11.66v30.391Zm32.57-41.976c6.84,0,7.37,2.332,7.37,5.266v43.48c0,2.934-.6,4.89-7.37,4.89v0.3h23.17v-0.3c-6.85,0-7.37-1.956-7.37-4.89V221.978c0-2.934.52-5.266,7.37-5.266v-0.3h-23.17v0.376Zm61.83,43.1c0,7.371-6.62,11.433-13.54,11.433-8.2,0-18.28-6.093-20.31-20.912h-0.3l0.82,21.364h0.45c0.23-1.2,1.06-3.31,3.31-3.31,4.07,0,8.13,3.234,16.03,3.234,9.18,0,20.31-4.739,20.31-16.1,0-20.988-33.03-11.434-33.03-29.037,0-7.071,5.87-10.756,11.22-10.756,7.82,0,16.32,5.19,19.03,19.407h0.3l-1.35-19.859h-0.3c-0.23,1.5-1.36,3.61-3.09,3.61-4.14,0-5.87-3.535-14.59-3.535-9.11,0-17.23,4.739-17.23,15.346C4785.68,251.842,4817.95,242.289,4817.95,259.892Zm82-16.325c0-15.872-9.25-28.134-24.6-28.134-15.28,0-24.61,12.262-24.61,28.134,0,15.948,9.33,28.134,24.61,28.134C4890.7,271.7,4899.95,259.515,4899.95,243.567Zm-8.73,0c0,16.023-5.86,27.758-15.87,27.758-9.93,0-15.8-11.735-15.8-27.758,0-15.948,5.87-27.757,15.8-27.757C4885.36,215.81,4891.22,227.619,4891.22,243.567Zm59.96-18.881c0-3.536.3-7.974,7.9-7.974v-0.3h-16.33v0.3c7.3,0,7.98,4.438,7.98,7.974v29.789c0,9.628-6.62,15.8-15.28,15.8-8.12,0-15.12-5.942-15.12-15.8v-32.5c0-2.934.53-5.266,7.37-5.266v-0.3h-23.1v0.3c6.78,0,7.3,2.332,7.3,5.266v32.5c0,11.434,8.66,17.377,19.64,17.377,10.69,0,19.64-5.642,19.64-17.377V224.686Zm35.05,45.737c-6.77,0-7.3-1.956-7.3-4.89V243.944h6.55c11.81,0,7.9,27.532,24.67,27.532a6.906,6.906,0,0,0,6.32-3.761c-0.15-.151-0.3-0.151-0.45-0.3-0.98,1.73-2.03,2.407-3.16,2.407-7.52,0-6.02-22.718-23.92-25.877,11.66-.377,19.41-5.492,19.41-13.842,0-9.027-7.75-13.691-18.36-13.691h-26.78v0.3c6.77,0,7.29,2.031,7.29,4.965v43.856c0,2.934-.52,4.89-7.29,4.89v0.3h23.02v-0.3Zm2.56-53.56c6.32,0,11.06,5.867,11.06,13.464s-4.74,13.165-13.47,13.165h-7.45v-21.74c0-3.009.9-4.889,3.54-4.889h6.32Zm-743,93.109,19.94,51h0.3l20.09-51h0.3v45.813c0,2.934-1.05,4.89-7.22,4.89v0.3h22.95v-0.3c-6.77,0-7.3-1.956-7.3-4.89V312.23c0-2.934.53-5.266,7.3-5.266v-0.3h-15.12l-16.78,42.5-16.63-42.5h-16.48v0.3c7.9,0,7.9,3.611,7.9,8.575v33.852c0,4.739-.6,11.284-7.9,11.284v0.3h15.88v-0.3c-7.15,0-7.53-6.846-7.53-11.51V309.972h0.3Zm109.91,23.847c0-15.872-9.25-28.134-24.6-28.134-15.27,0-24.6,12.262-24.6,28.134,0,15.948,9.33,28.134,24.6,28.134C4346.45,361.953,4355.7,349.767,4355.7,333.819Zm-8.72,0c0,16.023-5.87,27.758-15.88,27.758-9.93,0-15.8-11.735-15.8-27.758,0-15.948,5.87-27.758,15.8-27.758C4341.11,306.061,4346.98,317.871,4346.98,333.819Zm47.91,16.324c0,7.372-6.62,11.434-13.54,11.434-8.2,0-18.28-6.093-20.31-20.912h-0.31l0.83,21.364h0.45c0.23-1.2,1.06-3.31,3.31-3.31,4.07,0,8.13,3.234,16.03,3.234,9.18,0,20.31-4.739,20.31-16.1,0-20.988-33.03-11.434-33.03-29.037,0-7.071,5.87-10.757,11.22-10.757,7.82,0,16.32,5.191,19.03,19.408h0.3l-1.35-19.859h-0.3c-0.23,1.5-1.36,3.611-3.09,3.611-4.14,0-5.87-3.536-14.59-3.536-9.11,0-17.23,4.739-17.23,15.346C4362.62,342.094,4394.89,332.541,4394.89,350.143Zm39.35-39.643c0-2.784.22-3.385,1.58-3.385h1.88c11.89,0,14.37,5.867,17.08,16.323h0.3l-1.96-17.9h-0.3c-0.68.978-3.23,1.129-4.66,1.129h-36.27c-1.35,0-3.91-.151-4.59-1.129H4407l-1.96,17.9h0.3c3.32-11.66,5.72-16.323,17.01-16.323h1.8c1.51,0,1.66.526,1.66,3.385v45.285c0,2.934-.53,4.89-7.3,4.89v0.3h23.03v-0.3c-6.78,0-7.3-1.956-7.3-4.89V310.5Zm97.64-3.536v-0.3h-15.57v0.3c3.83,0.075,6.62,1.128,6.62,4.663,0,2.333-.75,4.289-1.73,6.847l-13.24,33.55-15.8-40.622a4.9,4.9,0,0,1-.46-1.88c0-1.2.61-2.558,5.87-2.558v-0.3h-20.76v0.3c3.38,0,5.71,1.5,6.84,4.362l20.39,50.778h0.3l17.31-43.706C4523.53,313.659,4526.39,306.964,4531.88,306.964Zm31.14,49.348a5.614,5.614,0,0,1,.45,1.88c0,1.2-.68,2.483-6.47,2.483v0.3h21.07v-0.3c-3.46,0-5.19-1.053-6.55-4.289l-20.84-50.852h-0.23l-17.23,43.029c-1.95,4.966-4.66,12.112-10.38,12.112v0.3h15.95v-0.3c-6.84,0-7.22-3.084-7.22-5.191,0-.6.15-2.031,2.18-7.146l2.79-6.921h20.54Zm-16.1-40.922,10.01,25.575h-20.24Zm49.65-3.461c0-2.934.52-4.965,7.37-4.965v-0.3h-23.1v0.3c6.77,0,7.3,2.031,7.3,4.965v43.856c0,2.934-.53,4.89-7.3,4.89v0.3h43.04c0.75-6.545,1.51-13.09,2.18-19.634h-0.3c-4.21,18.957-7.97,19.257-20.16,19.257h-5.8c-1.95,0-3.23-1.278-3.23-4.814V311.929Zm77.11,3.009c0-3.536.3-7.974,7.9-7.974v-0.3h-16.33v0.3c7.3,0,7.98,4.438,7.98,7.974v29.789c0,9.628-6.62,15.8-15.28,15.8-8.12,0-15.12-5.942-15.12-15.8v-32.5c0-2.934.53-5.266,7.37-5.266v-0.3h-23.1v0.3c6.78,0,7.3,2.332,7.3,5.266v32.5c0,11.434,8.65,17.377,19.64,17.377,10.69,0,19.64-5.642,19.64-17.377V314.938Zm46.41,41.374a5.614,5.614,0,0,1,.45,1.88c0,1.2-.68,2.483-6.47,2.483v0.3h21.07v-0.3c-3.46,0-5.19-1.053-6.55-4.289l-20.84-50.852h-0.23l-17.23,43.029c-1.95,4.966-4.66,12.112-10.38,12.112v0.3h15.95v-0.3c-6.84,0-7.22-3.084-7.22-5.191,0-.6.15-2.031,2.18-7.146l2.79-6.921h20.54Zm-16.1-40.922L4714,340.965h-20.24Zm79.67,30.917c0-7-4.74-12.488-16.26-13.766,8.66-1.354,13.4-6.7,13.4-12.563,0-9.779-7.6-13.315-20.54-13.315h-22.35v0.3c6.7,0,7.15,1.579,7.15,4.513v44.308c0,2.934-.45,4.89-7.15,4.89v0.3h27.84C4776.81,360.976,4783.66,355.032,4783.66,346.307Zm-8.51,0c0,9.779-6.17,14.292-13.62,14.292h-2.48c-2.71,0-5.49-.075-5.49-4.814V333.067h8.28C4769.81,333.067,4775.15,337.881,4775.15,346.307Zm-2.85-26.1c0,7.071-4.14,12.487-9.79,12.487h-8.95V311.4c0-4.213,2.48-4.287,4.74-4.287h2.11C4769.44,307.115,4772.3,312.831,4772.3,320.2Zm33.84-8.275c0-2.934.53-4.965,7.38-4.965v-0.3h-23.1v0.3c6.77,0,7.3,2.031,7.3,4.965v43.856c0,2.934-.53,4.89-7.3,4.89v0.3h43.03c0.76-6.545,1.51-13.09,2.19-19.634h-0.31c-4.21,18.957-7.97,19.257-20.16,19.257h-5.79c-1.96,0-3.24-1.278-3.24-4.814V311.929Zm31.97-5.266v0.3c6.62,0,7.3,1.579,7.3,4.965v43.856c0,2.934-.53,4.89-7.3,4.89v0.3h43.04l2.18-19.634h-0.3c-4.67,18.806-8.28,19.257-20.17,19.257h-5.79c-1.96,0-3.24-1.278-3.24-4.814V332.991h5.72c5.12,0,10.69,2.784,10.76,12.639h0.3V319.9h-0.3c-0.07,9.855-5.64,12.713-10.76,12.713h-5.72V311.929c0-4.213,1.43-4.814,2.86-4.814h6.02c12.49,0,15.35,5.039,18.29,16.323h0.37l-1.96-17.9h-0.37c-0.83,1.129-4.21,1.129-6.02,1.129h-34.91Zm-561.99,139.9a5.866,5.866,0,0,1,.45,1.88c0,1.2-.68,2.483-6.47,2.483v0.3h21.06v-0.3c-3.46,0-5.19-1.053-6.54-4.289l-20.84-50.852h-0.23l-17.23,43.029c-1.96,4.966-4.66,12.112-10.38,12.112v0.3h15.95v-0.3c-6.85,0-7.22-3.084-7.22-5.191,0-.6.15-2.031,2.18-7.146l2.78-6.921h20.54Zm-16.11-40.922,10.01,25.575h-20.24Zm67.78,34.754c0,7.371-6.62,11.433-13.54,11.433-8.2,0-18.28-6.093-20.31-20.912h-0.31l0.83,21.364h0.45c0.23-1.2,1.06-3.31,3.31-3.31,4.07,0,8.13,3.234,16.03,3.234,9.18,0,20.31-4.739,20.31-16.1,0-20.988-33.03-11.434-33.03-29.037,0-7.071,5.87-10.757,11.22-10.757,7.82,0,16.32,5.191,19.03,19.408h0.3l-1.35-19.859h-0.3c-0.23,1.5-1.36,3.61-3.09,3.61-4.14,0-5.87-3.535-14.59-3.535-9.11,0-17.23,4.739-17.23,15.346C4295.52,432.346,4327.79,422.793,4327.79,440.4Zm45.66,0c0,7.371-6.62,11.433-13.54,11.433-8.2,0-18.28-6.093-20.31-20.912h-0.3l0.82,21.364h0.45c0.23-1.2,1.06-3.31,3.31-3.31,4.07,0,8.13,3.234,16.03,3.234,9.18,0,20.32-4.739,20.32-16.1,0-20.988-33.04-11.434-33.04-29.037,0-7.071,5.87-10.757,11.22-10.757,7.82,0,16.32,5.191,19.03,19.408h0.3l-1.35-19.859h-0.3c-0.23,1.5-1.36,3.61-3.09,3.61-4.14,0-5.87-3.535-14.59-3.535-9.11,0-17.23,4.739-17.23,15.346C4341.18,432.346,4373.45,422.793,4373.45,440.4Zm11.81-43.481v0.3c6.62,0,7.3,1.579,7.3,4.965v43.856c0,2.934-.53,4.89-7.3,4.89v0.3h43.04l2.18-19.634h-0.3c-4.67,18.806-8.28,19.257-20.17,19.257h-5.79c-1.96,0-3.23-1.278-3.23-4.814V423.243h5.71c5.12,0,10.69,2.784,10.76,12.639h0.3V410.154h-0.3c-0.07,9.855-5.64,12.713-10.76,12.713h-5.71V402.181c0-4.213,1.42-4.814,2.85-4.814h6.02c12.49,0,15.35,5.039,18.29,16.323h0.37l-1.96-17.9h-0.37c-0.83,1.129-4.21,1.129-6.02,1.129h-34.91Zm78.09,3.837c0-2.784.22-3.385,1.58-3.385h1.88c11.88,0,14.37,5.867,17.08,16.323h0.3l-1.96-17.9h-0.3c-0.68.978-3.24,1.129-4.66,1.129H4441c-1.35,0-3.91-.151-4.59-1.129h-0.3l-1.96,17.9h0.3c3.32-11.66,5.72-16.323,17.01-16.323h1.8c1.51,0,1.66.526,1.66,3.385v45.285c0,2.934-.53,4.89-7.3,4.89v0.3h23.02v-0.3c-6.77,0-7.29-1.956-7.29-4.89V400.752Z" transform="translate(-4235.94 -215.281)"/>
</svg>
