<svg xmlns="http://www.w3.org/2000/svg" width="1360" height="147" viewBox="0 0 1360 147">
  <defs>
    <style>
      .cls-1 {
        fill: #1e0e00;
        fill-rule: evenodd;
      }
    </style>
  </defs>
  <path class="cls-1" d="M855.24,149.01a4.921,4.921,0,0,0-1.082,3.715v43.692c0,2.943.526,4.906,7.294,4.906v0.3H838.513v-0.3c6.166,0,7.22-1.963,7.22-4.906V150.46h-0.3l-20.083,51.165h-0.3L805.115,150.46h-0.3v39.317c0,4.679.376,11.546,7.521,11.546v0.3H796.464v-0.3c7.3,0,7.9-6.565,7.9-11.319V156.045c0-4.981,0-8.6-7.9-8.6v-0.3h16.474l16.622,42.636,16.773-42.636h0.793V147H1760v2.007H855.24Zm-81.777,52.313c5.791,0,6.468-1.283,6.468-2.491a5.8,5.8,0,0,0-.45-1.887L773.539,182H753l-2.784,6.943c-2.03,5.131-2.181,6.565-2.181,7.168,0,2.113.376,5.208,7.221,5.208v0.3H739.313v-0.3c5.718,0,8.424-7.169,10.381-12.15l17.223-43.165h0.227l20.836,51.013c1.353,3.246,3.082,4.3,6.544,4.3v0.3H773.463v-0.3Zm-10.08-45.43-10.23,25.659h20.235Zm-49.78,45.43c6.168,0,7.221-1.283,7.221-4.906V173.4h-25.2v23.016c0,3.623,1.052,4.906,7.22,4.906v0.3H679.906v-0.3c6.77,0,7.3-1.963,7.3-4.906V152.8c0-3.622-1.2-5.358-7.3-5.358v-0.3h22.941v0.3c-6.168,0-7.22,1.736-7.22,5.283v20.224h25.2V152.725c0-3.773-1.128-5.283-7.221-5.283v-0.3h22.941v0.3c-6.168,0-7.3,1.51-7.3,5.358v43.617c0,3.321.677,4.906,7.3,4.906v0.3H713.6v-0.3Zm-38.8,90.838H648.172v-0.3c6.77,0,7.3-1.961,7.3-4.9V243.261c0-3.546-1.2-5.282-7.3-5.282v-0.3h22.941v0.3c-6.168,0-7.221,1.736-7.221,5.282v18.791a40.973,40.973,0,0,1,9.477-1.359c12.337,0,19.407,7.32,19.407,16.451C692.776,286.576,685.1,292.161,674.8,292.161Zm-3.837-30.637a27.949,27.949,0,0,0-7.07.9v24.979c0,2.943.9,4.226,2.407,4.226h7.3c6.468,0,10.6-7.4,10.6-14.489C684.2,269.9,679.762,261.524,670.962,261.524Zm-39.477-60.2c6.166,0,7.221-1.283,7.221-4.906V156.271L612,192.719v3.7c0,3.623,1.053,4.906,7.221,4.906v0.3H596.283v-0.3c6.77,0,7.3-1.963,7.3-4.906V152.725c0-2.943-.526-5.283-7.3-5.283v-0.3h22.941v0.3c-6.168,0-7.221,1.736-7.221,5.283V191.89l26.7-36.524v-2.641c0-3.547-1.055-5.283-7.221-5.283v-0.3h22.939v0.3c-6.767,0-7.294,2.34-7.294,5.283v43.692c0,2.943.527,4.906,7.294,4.906v0.3H631.485v-0.3Zm-57.453.3H551.091c-6.166,0-11.959,2.188-13.84,14.564h-0.3L538,201.171h5.717c6.693-4.9,11.733-20.978,11.733-45.352,0-3.094-.753-8.377-7.523-8.377v-0.3h41.746v0.3c-6.168,0-7.221.906-7.221,4.529v44.3c0,3.773,2.256,4.9,7.372,4.9l1.2,15.018h-0.3C588.549,201.625,581.328,201.625,574.032,201.625Zm0-50.41c0-2.792-.828-3.622-2.631-3.622h-7.523c-6.694,0-7.973,3.32-7.973,8.226,0,17.507-2.858,36.826-10.605,45.352h25.5c2.107,0,3.235-.754,3.235-3.622V151.215Zm-63.164,51.391c-15.27,0-24.371-12.226-24.371-28.224V173.4h-9.852v23.016c0,3.623,1.052,4.906,7.22,4.906v0.3H460.924v-0.3c6.77,0,7.3-1.963,7.3-4.906V152.725c0-2.943-.526-5.283-7.3-5.283v-0.3h22.941v0.3c-6.168,0-7.22,1.736-7.22,5.283v20.224H486.5c0.528-15.244,9.554-26.789,24.371-26.789,15.343,0,24.371,12.3,24.371,28.222C535.239,190.38,526.211,202.606,510.868,202.606Zm0-56.069c-9.93,0-15.57,11.847-15.57,27.845,0,16.074,5.64,27.846,15.57,27.846,10,0,15.645-11.772,15.645-27.846C526.513,158.384,520.871,146.537,510.868,146.537ZM478.15,236.545l20.834,51.012c1.355,3.245,3.084,4.3,6.546,4.3v0.3H484.469v-0.3c5.791,0,6.468-1.283,6.468-2.49a5.79,5.79,0,0,0-.45-1.886l-5.944-14.942H464.011l-2.785,6.942c-2.029,5.132-2.18,6.565-2.18,7.169,0,2.113.375,5.207,7.22,5.207v0.3H450.319v-0.3c5.718,0,8.425-7.169,10.381-12.15l17.226-43.164h0.224Zm-13.991,35.542h20.235l-10-25.656Zm-29.924-70.764c6.09,0,7.145-1.056,7.145-4.452V151.215c0-3.018-.753-3.622-5.642-3.622h-8.724c-3.61,0-5.416,4.3-5.416,7.924,0,19.394-1.354,47.013-14.441,47.013-4.514,0-7.146-4.754-7.146-8.452,0-2.415,1.579-4.6,3.986-4.6s3.761,2.264,3.761,4.528c0,1.057-.3,2.49-0.3,4.453,0,1.508.45,2.715,1.956,2.715,4.287,0,11.732-7.017,11.732-45.73,0-3.546-1.578-8-8.573-8v-0.3H456.95v0.3c-6.093,0-7.146.906-7.146,4.529v44.9c0,3.32,1.053,4.452,7.146,4.452v0.3H434.235v-0.3Zm10.755,49.71c0,5.887-4.738,11.245-13.389,12.6,11.509,1.284,16.247,6.793,16.247,13.811,0,8.754-6.845,14.715-17.9,14.715H402.116v-0.3c6.695,0,7.146-1.961,7.146-4.9V242.506c0-2.943-.451-4.527-7.146-4.527v-0.3h22.34C437.392,237.676,444.99,241.224,444.99,251.033Zm-27.229,35.921c0,4.755,2.783,4.829,5.492,4.829h2.482c7.445,0,13.613-4.527,13.613-14.337,0-8.452-5.34-13.281-13.313-13.281h-8.274v22.789Zm0-44.523v21.356h8.951c5.642,0,9.779-5.433,9.779-12.526,0-7.4-2.858-13.131-11.884-13.131H422.5C420.244,238.13,417.761,238.205,417.761,242.431Zm92.268,48.824c3.008,0,4.587-5.131,6.243-9.433,3.686-9.809,6.393-17.884,20.082-18.035l-16.1-19.319c-2.558-3.018-7.6-6.489-12.485-6.489v-0.3h18.578v0.3c-3.16.151-6.393,1.508-6.393,3.849a4.138,4.138,0,0,0,1.128,2.64l15.8,19.319h3.91V243.261c0-3.546-1.052-5.282-7.22-5.282v-0.3h22.941v0.3c-6.168,0-7.221,1.736-7.221,5.282v20.526h3.91L569,244.468a4.133,4.133,0,0,0,1.128-2.64c0-2.341-3.233-3.7-6.392-3.849v-0.3h18.578v0.3c-4.889,0-9.93,3.471-12.485,6.489l-16.1,19.319c13.689,0.151,16.395,8.226,20.081,18.035,1.654,4.3,3.235,9.433,6.244,9.433,1.279,0,2.782-1.131,3.761-2.792l0.3,0.227a8.071,8.071,0,0,1-7.145,4.3c-16.549,0-11.584-28.826-23.918-28.826h-3.762v22.789c0,3.622,1.053,4.9,7.221,4.9v0.3H533.572v-0.3c6.168,0,7.22-1.283,7.22-4.9V264.165h-3.761c-12.334,0-7.369,28.826-23.918,28.826a8.074,8.074,0,0,1-7.146-4.3l0.3-.227C507.246,290.124,508.75,291.255,510.029,291.255Zm99.645-53.276c-6.168,0-7.221,1.736-7.221,5.282v20.224h25.2V243.261c0-3.774-1.128-5.282-7.221-5.282v-0.3h22.941v0.3c-6.168,0-7.3,1.508-7.3,5.358v43.617c0,3.32.677,4.9,7.3,4.9v0.3H620.43v-0.3c6.168,0,7.221-1.283,7.221-4.9V263.938h-25.2v23.016c0,3.622,1.053,4.9,7.221,4.9v0.3H586.733v-0.3c6.77,0,7.3-1.961,7.3-4.9V243.337c0-3.622-1.2-5.358-7.3-5.358v-0.3h22.941v0.3Zm107.246,0c-6.845,0-7.371,2.339-7.371,5.282v43.693c0,2.944.526,4.9,7.371,4.9v0.3H693.828v-0.3c6.77,0,7.3-1.961,7.3-4.9V243.261c0-2.943-.526-5.282-7.3-5.282v-0.3H716.92v0.3Z" transform="translate(-400 -146)"/>
</svg>
