<svg xmlns="http://www.w3.org/2000/svg" width="775.81" height="236.781" viewBox="0 0 775.81 236.781">
  <defs>
    <style>
      .cls-1 {
        fill: #1e0e00;
        fill-rule: evenodd;
      }
    </style>
  </defs>
  <path data-name="Наша репутация самый ценный  актив" class="cls-1" d="M4271.68,216.411v0.3c6.09,0,7.22,1.505,7.22,5.266v20.16h-25.2v-20.16c0-3.536,1.05-5.266,7.22-5.266v-0.3h-22.95v0.3c6.09,0,7.3,1.73,7.3,5.341v43.48c0,2.934-.53,4.89-7.3,4.89v0.3h22.95v-0.3c-6.17,0-7.22-1.279-7.22-4.89V242.59h25.2v22.943c0,3.611-1.05,4.89-7.22,4.89v0.3h22.94v-0.3c-6.62,0-7.29-1.581-7.29-4.89v-43.48c0-3.836,1.13-5.341,7.29-5.341v-0.3h-22.94Zm65.89,49.649a5.634,5.634,0,0,1,.46,1.88c0,1.2-.68,2.483-6.47,2.483v0.3h21.06v-0.3c-3.46,0-5.19-1.053-6.54-4.289l-20.84-50.852h-0.23l-17.23,43.029c-1.96,4.966-4.67,12.112-10.38,12.112v0.3h15.95v-0.3c-6.85,0-7.22-3.084-7.22-5.191,0-.6.15-2.031,2.18-7.146l2.78-6.921h20.54Zm-16.1-40.922,10.01,25.575h-20.24Zm33.92,45.586h82.54v-0.3c-6.84,0-7.3-1.956-7.3-4.89V221.978c0-2.934.46-5.266,7.3-5.266v-0.3h-22.65v0.3c6.17,0,6.93,1.73,6.93,5.266v43.706c0,3.46-.98,4.588-3.99,4.588H4404.9c-3.01,0-3.99-1.128-3.99-4.588V221.978c0-3.536.76-5.266,6.85-5.266v-0.3h-22.19v0.3c6.09,0,6.84,1.73,6.84,5.266v43.706c0,3.46-.98,4.588-3.91,4.588h-13.39c-2.94,0-3.99-1.128-3.99-4.588V221.978c0-3.536.75-5.266,6.92-5.266v-0.3h-22.65v0.3c6.85,0,7.3,2.332,7.3,5.266v43.555c0,2.934-.45,4.89-7.3,4.89v0.3Zm125.49-4.664a5.866,5.866,0,0,1,.45,1.88c0,1.2-.68,2.483-6.47,2.483v0.3h21.07v-0.3c-3.47,0-5.2-1.053-6.55-4.289l-20.84-50.852h-0.23l-17.23,43.029c-1.95,4.966-4.66,12.112-10.38,12.112v0.3h15.95v-0.3c-6.85,0-7.22-3.084-7.22-5.191,0-.6.15-2.031,2.18-7.146l2.78-6.921h20.54Zm-16.11-40.922,10.01,25.575h-20.24Zm90.95,6.469c0,8.048-3.84,16.549-12.11,16.549-6.62,0-8.58-3.009-8.58-8.049v-18.43c0-4.063,3.01-4.814,5.27-4.814h4.44C4551.21,216.863,4555.72,223.708,4555.72,231.607Zm-36.41-15.2v0.3c6.77,0,7.29,2.031,7.29,4.965v43.856c0,2.934-.52,4.89-7.29,4.89v0.3h23.7v-0.3c-6.85,0-7.98-1.354-7.98-4.89V246.125a18.336,18.336,0,0,0,9.93,2.557c11.66,0,19.34-7.673,19.34-17.075,0-9.328-7.68-15.2-17.98-15.2h-27.01Zm49.27,0v0.3c6.62,0,7.3,1.579,7.3,4.965v43.856c0,2.934-.53,4.89-7.3,4.89v0.3h43.04l2.18-19.634h-0.3c-4.67,18.806-8.28,19.257-20.17,19.257h-5.79c-1.96,0-3.24-1.278-3.24-4.814V242.739h5.72c5.12,0,10.69,2.784,10.76,12.639h0.3V229.65h-0.3c-0.07,9.855-5.64,12.713-10.76,12.713h-5.72V221.677c0-4.213,1.43-4.814,2.86-4.814h6.02c12.49,0,15.35,5.039,18.29,16.323h0.37l-1.96-17.9h-0.37c-0.83,1.129-4.21,1.129-6.02,1.129h-34.91Zm91.48,49.122c0,3.611-1.05,4.89-7.22,4.89v0.3h22.95v-0.3c-6.85,0-7.3-1.956-7.3-4.89V221.6c0-2.935.45-4.89,7.3-4.89v-0.3h-56.66v0.3c6.77,0,7.3,1.955,7.3,4.89v43.931c0,2.934-.53,4.89-7.3,4.89v0.3h22.95v-0.3c-6.17,0-7.22-1.279-7.22-4.89V221.752c0-3.159,1.05-4.889,7.22-4.889h10.76c6.17,0,7.22,1.73,7.22,4.889v43.781Zm29.48-7.3c-2.41,0-4.06,2.333-4.06,5.041,0,5.792,5.27,8.5,10.01,8.5,5.86,0,7.67-3.385,11.51-10.983l16.1-37.538c1.65-3.912,4.89-6.544,9.03-6.544v-0.3h-15.5v0.3c5.26,0,6.55,2.332,6.55,4.137a7.113,7.113,0,0,1-.61,2.407l-12.04,28.511-13.69-27.157c-1.2-2.407-1.73-3.159-1.73-4.964,0-1.5,1.13-2.934,6.47-2.934v-0.3h-23.02v0.3c5.72,0.151,7.22,2.859,9.93,8.275l17.91,35.807c-2.94,7.3-6.32,10.23-9.26,10.23-3.38,0-4.21-2.331-4.21-4.062,0-1.429.75-2.632,0.75-3.536C4693.68,260.493,4692.25,258.236,4689.54,258.236Zm73.2-37.988c0-2.784.22-3.385,1.58-3.385h1.88c11.89,0,14.37,5.867,17.08,16.323h0.3l-1.96-17.9h-0.3c-0.67.978-3.23,1.129-4.66,1.129h-36.27c-1.35,0-3.91-.151-4.59-1.129h-0.3l-1.95,17.9h0.3c3.31-11.66,5.71-16.323,17-16.323h1.81c1.5,0,1.65.526,1.65,3.385v45.285c0,2.934-.53,4.89-7.3,4.89v0.3h23.03v-0.3c-6.77,0-7.3-1.956-7.3-4.89V220.248Zm55.37,45.812a5.866,5.866,0,0,1,.45,1.88c0,1.2-.68,2.483-6.47,2.483v0.3h21.06v-0.3c-3.46,0-5.19-1.053-6.54-4.289l-20.84-50.852h-0.23l-17.23,43.029c-1.95,4.966-4.66,12.112-10.38,12.112v0.3h15.95v-0.3c-6.85,0-7.22-3.084-7.22-5.191,0-.6.15-2.031,2.18-7.146l2.78-6.921h20.54ZM4802,225.138l10.01,25.575h-20.24Zm33.93,45.586h40.93c7.29,0,14.52,0,16.7,14.518h0.3l-1.2-14.819c-5.12,0-7.38-1.279-7.38-5.04V221.6c0-2.935.46-4.89,7.3-4.89v-0.3h-22.95v0.3c6.17,0,7.23,1.278,7.23,4.89v43.781c0,3.159-1.06,4.889-7.23,4.889h-10.76c-6.17,0-7.22-1.73-7.22-4.889V221.6c0-3.612,1.05-4.89,7.22-4.89v-0.3h-22.94v0.3c6.77,0,7.29,1.955,7.29,4.89v43.781c0,2.933-.52,5.04-7.29,5.04v0.3Zm78.23-8.877,26.71-36.334v40.02c0,3.611-1.05,4.89-7.22,4.89v0.3h22.95v-0.3c-6.77,0-7.3-1.956-7.3-4.89V221.978c0-2.934.53-5.266,7.3-5.266v-0.3h-22.95v0.3c6.17,0,7.22,1.73,7.22,5.266v2.632l-26.71,36.409V221.978c0-3.536,1.06-5.266,7.23-5.266v-0.3h-22.95v0.3c6.77,0,7.3,2.332,7.3,5.266v43.555c0,2.934-.53,4.89-7.3,4.89v0.3h22.95v-0.3c-6.17,0-7.23-1.279-7.23-4.89v-3.686Zm78.32-44.984c2.63,0,3.53,1.88,3.53,4.889v21.74h-7.45c-8.72,0-13.46-5.567-13.46-13.165s4.74-13.464,11.06-13.464h6.32Zm-3.77,53.861h23.03v-0.3c-6.77,0-7.3-1.956-7.3-4.89V221.677c0-2.934.53-4.965,7.3-4.965v-0.3h-26.79c-10.61,0-18.36,4.664-18.36,13.691,0,8.35,7.75,13.465,19.42,13.842-17.91,3.159-16.41,25.877-23.93,25.877-1.13,0-2.18-.677-3.16-2.407-0.15.15-.3,0.15-0.45,0.3a6.918,6.918,0,0,0,6.32,3.761c16.78,0,12.86-27.532,24.68-27.532h6.54v21.589c0,2.934-.52,4.89-7.3,4.89v0.3Zm-726.06,34.961c-16.25,0-24.38,14.443-24.38,29.413,0,15.421,9.48,27.006,24.68,27.006a19.792,19.792,0,0,0,19.79-19.484,1.166,1.166,0,0,0-1.21-1.278c-0.45,0-1.05.451-1.12,1.58-0.91,10.306-6.78,18.43-16.33,18.43s-16.93-9.629-16.93-27.232c0-17.076,5.94-27.909,16.32-27.909,6.03,0,14.53,5.567,17.61,20.387h0.38l-1.73-20.837h-0.38c-0.37,2.181-1.43,3.385-2.86,3.385C4273.63,309.146,4268.74,305.685,4262.65,305.685Zm62.29,50.627a5.866,5.866,0,0,1,.45,1.88c0,1.2-.68,2.483-6.47,2.483v0.3h21.06v-0.3c-3.46,0-5.19-1.053-6.54-4.289l-20.84-50.852h-0.23l-17.23,43.029c-1.96,4.966-4.66,12.112-10.38,12.112v0.3h15.95v-0.3c-6.85,0-7.22-3.084-7.22-5.191,0-.6.15-2.031,2.18-7.146l2.78-6.921h20.54Zm-16.11-40.922,10.01,25.575H4298.6Zm41.75-5.418,19.94,51h0.3l20.09-51h0.3v45.813c0,2.934-1.05,4.89-7.22,4.89v0.3h22.94v-0.3c-6.77,0-7.29-1.956-7.29-4.89V312.23c0-2.934.52-5.266,7.29-5.266v-0.3h-15.12l-16.78,42.5-16.62-42.5h-16.48v0.3c7.9,0,7.9,3.611,7.9,8.575v33.852c0,4.739-.6,11.284-7.9,11.284v0.3h15.87v-0.3c-7.14,0-7.52-6.846-7.52-11.51V309.972h0.3Zm67.63,45.813c0,2.934-.53,4.89-7.3,4.89v0.3h26.64c10.3,0,17.98-5.567,17.98-14.97,0-9.1-7.07-16.4-19.41-16.4a41.121,41.121,0,0,0-9.48,1.354V312.23c0-3.536,1.05-5.266,7.22-5.266v-0.3h-22.95v0.3c6.1,0,7.3,1.73,7.3,5.266v43.555Zm28.74-9.779c0,7.071-4.14,14.443-10.61,14.443h-7.3c-1.5,0-2.4-1.279-2.4-4.212v-24.9a28,28,0,0,1,7.07-.9C4442.51,330.434,4446.95,338.785,4446.95,346.006Zm25.36-33.776c0-2.934.52-5.266,7.37-5.266v-0.3h-23.1v0.3c6.77,0,7.3,2.332,7.3,5.266v43.555c0,2.934-.53,4.89-7.3,4.89v0.3h23.1v-0.3c-6.85,0-7.37-1.956-7.37-4.89V312.23Zm27.9,39.869,26.71-36.334v40.02c0,3.611-1.06,4.89-7.23,4.89v0.3h22.95v-0.3c-6.77,0-7.3-1.956-7.3-4.89V312.23c0-2.934.53-5.266,7.3-5.266v-0.3h-22.95v0.3c6.17,0,7.23,1.73,7.23,5.266v2.632l-26.71,36.409V312.23c0-3.536,1.05-5.266,7.22-5.266v-0.3h-22.95v0.3c6.77,0,7.3,2.332,7.3,5.266v43.555c0,2.934-.53,4.89-7.3,4.89v0.3h22.95v-0.3c-6.17,0-7.22-1.279-7.22-4.89V352.1Zm13.16-48.9c-6.32,0-8.27-2.332-8.27-5.116,0-1.429,1.12-2.407,1.12-4.362a3.191,3.191,0,0,0-3.08-3.461c-2.03,0-3.46,2.257-3.46,3.987,0,6.7,6.62,9.4,13.69,9.4s13.7-2.708,13.7-9.4c0-2.031-1.36-3.987-3.46-3.987a3.439,3.439,0,0,0-3.09,3.461c0,2.031,1.13,3.385,1.13,4.362C4521.65,300.871,4519.69,303.2,4513.37,303.2Zm54.76,57.773h40.93c7.3,0,14.52,0,16.7,14.518h0.3l-1.2-14.819c-5.12,0-7.37-1.279-7.37-5.04V311.854c0-2.935.45-4.89,7.29-4.89v-0.3h-22.94v0.3c6.17,0,7.22,1.278,7.22,4.89v43.781c0,3.159-1.05,4.889-7.22,4.889h-10.76c-6.17,0-7.23-1.73-7.23-4.889V311.854c0-3.612,1.06-4.89,7.23-4.89v-0.3h-22.95v0.3c6.77,0,7.3,1.955,7.3,4.89v43.781c0,2.933-.53,5.04-7.3,5.04v0.3Zm62.51-54.313v0.3c6.62,0,7.3,1.579,7.3,4.965v43.856c0,2.934-.53,4.89-7.3,4.89v0.3h43.04l2.18-19.634h-0.3c-4.67,18.806-8.28,19.257-20.17,19.257h-5.79c-1.96,0-3.23-1.278-3.23-4.814V332.991h5.71c5.12,0,10.69,2.784,10.76,12.639h0.3V319.9h-0.3c-0.07,9.855-5.64,12.713-10.76,12.713h-5.71V311.929c0-4.213,1.42-4.814,2.85-4.814h6.02c12.49,0,15.35,5.039,18.29,16.323h0.37l-1.96-17.9h-0.37c-0.83,1.129-4.21,1.129-6.02,1.129h-34.91Zm84.26,0v0.3c6.09,0,7.22,1.5,7.22,5.266v20.16h-25.2V312.23c0-3.536,1.05-5.266,7.22-5.266v-0.3h-22.95v0.3c6.1,0,7.3,1.73,7.3,5.341v43.48c0,2.934-.53,4.89-7.3,4.89v0.3h22.95v-0.3c-6.17,0-7.22-1.279-7.22-4.89V332.842h25.2v22.943c0,3.611-1.05,4.89-7.22,4.89v0.3h22.95v-0.3c-6.62,0-7.3-1.581-7.3-4.89v-43.48c0-3.836,1.13-5.341,7.3-5.341v-0.3H4714.9Zm61.46,0v0.3c6.09,0,7.22,1.5,7.22,5.266v20.16h-25.2V312.23c0-3.536,1.05-5.266,7.22-5.266v-0.3h-22.95v0.3c6.09,0,7.3,1.73,7.3,5.341v43.48c0,2.934-.53,4.89-7.3,4.89v0.3h22.95v-0.3c-6.17,0-7.22-1.279-7.22-4.89V332.842h25.2v22.943c0,3.611-1.05,4.89-7.22,4.89v0.3h22.94v-0.3c-6.62,0-7.29-1.581-7.29-4.89v-43.48c0-3.836,1.13-5.341,7.29-5.341v-0.3h-22.94Zm35.04,49.122c0,2.934-.52,4.89-7.3,4.89v0.3h26.64c10.31,0,17.98-5.567,17.98-14.97,0-9.1-7.07-16.4-19.41-16.4a41.2,41.2,0,0,0-9.48,1.354V312.23c0-3.536,1.05-5.266,7.22-5.266v-0.3H4804.1v0.3c6.1,0,7.3,1.73,7.3,5.266v43.555Zm28.75-9.779c0,7.071-4.14,14.443-10.61,14.443h-7.3c-1.51,0-2.41-1.279-2.41-4.212v-24.9a28.056,28.056,0,0,1,7.07-.9C4835.71,330.434,4840.15,338.785,4840.15,346.006Zm25.35-33.776c0-2.934.53-5.266,7.38-5.266v-0.3h-23.1v0.3c6.77,0,7.3,2.332,7.3,5.266v43.555c0,2.934-.53,4.89-7.3,4.89v0.3h23.1v-0.3c-6.85,0-7.38-1.956-7.38-4.89V312.23Zm27.9,39.869,26.71-36.334v40.02c0,3.611-1.05,4.89-7.22,4.89v0.3h22.95v-0.3c-6.78,0-7.3-1.956-7.3-4.89V312.23c0-2.934.52-5.266,7.3-5.266v-0.3h-22.95v0.3c6.17,0,7.22,1.73,7.22,5.266v2.632l-26.71,36.409V312.23c0-3.536,1.05-5.266,7.22-5.266v-0.3h-22.95v0.3c6.78,0,7.3,2.332,7.3,5.266v43.555c0,2.934-.52,4.89-7.3,4.89v0.3h22.95v-0.3c-6.17,0-7.22-1.279-7.22-4.89V352.1Zm13.17-48.9c-6.32,0-8.28-2.332-8.28-5.116,0-1.429,1.13-2.407,1.13-4.362a3.2,3.2,0,0,0-3.09-3.461c-2.03,0-3.46,2.257-3.46,3.987,0,6.7,6.63,9.4,13.7,9.4s13.69-2.708,13.69-9.4c0-2.031-1.35-3.987-3.46-3.987a3.438,3.438,0,0,0-3.08,3.461c0,2.031,1.12,3.385,1.12,4.362C4914.84,300.871,4912.89,303.2,4906.57,303.2ZM4276.12,446.564a5.866,5.866,0,0,1,.45,1.88c0,1.2-.68,2.483-6.47,2.483v0.3h21.06v-0.3c-3.46,0-5.19-1.053-6.54-4.289l-20.84-50.852h-0.23l-17.23,43.029c-1.96,4.966-4.66,12.112-10.38,12.112v0.3h15.95v-0.3c-6.85,0-7.22-3.084-7.22-5.191,0-.6.15-2.031,2.18-7.146l2.78-6.921h20.54Zm-16.11-40.922,10.01,25.575h-20.24Zm33.93-8.727v0.3c6.69,0,7.14,1.579,7.14,4.513v44.308c0,2.934-.45,4.89-7.14,4.89v0.3h22.94v-0.3c-6.17,0-7.22-1.279-7.22-4.89V423.319h3.76c12.34,0,10.39,28.736,27.09,28.736a8.083,8.083,0,0,0,7.15-4.288l-0.38-.225c-1.05,1.655-2.41,2.783-3.69,2.783-3,0-5.04-5.115-6.77-9.4-3.91-9.78-9.03-17.829-22.72-17.979l19.71-20.311c2.86-2.557,6.78-5.416,11.59-5.416v-0.3h-18.58v0.3c3.31,0.075,6.54,1.579,6.54,3.836a3.871,3.871,0,0,1-1.28,2.633l-18.51,19.258h-3.91V403.911c0-4.513.15-6.695,7.22-6.695v-0.3h-22.94Zm84.4,3.837c0-2.784.23-3.385,1.58-3.385h1.88c11.89,0,14.38,5.867,17.08,16.323h0.3l-1.95-17.9h-0.3c-0.68.978-3.24,1.129-4.67,1.129H4356c-1.36,0-3.91-.151-4.59-1.129h-0.3l-1.96,17.9h0.3c3.31-11.66,5.72-16.323,17.01-16.323h1.8c1.51,0,1.66.526,1.66,3.385v45.285c0,2.934-.53,4.89-7.3,4.89v0.3h23.02v-0.3c-6.77,0-7.3-1.956-7.3-4.89V400.752Zm39.72,41.6,26.71-36.334v40.02c0,3.611-1.05,4.89-7.22,4.89v0.3h22.94v-0.3c-6.77,0-7.29-1.956-7.29-4.89V402.482c0-2.935.52-5.266,7.29-5.266v-0.3h-22.94v0.3c6.17,0,7.22,1.73,7.22,5.266v2.632l-26.71,36.409V402.482c0-3.536,1.05-5.266,7.22-5.266v-0.3h-22.95v0.3c6.78,0,7.3,2.331,7.3,5.266v43.555c0,2.934-.52,4.89-7.3,4.89v0.3h22.95v-0.3c-6.17,0-7.22-1.279-7.22-4.89v-3.686Zm93.06-5.792c0-7-4.74-12.488-16.25-13.766,8.65-1.354,13.39-6.7,13.39-12.563,0-9.779-7.6-13.315-20.54-13.315h-22.35v0.3c6.7,0,7.15,1.579,7.15,4.513v44.308c0,2.934-.45,4.89-7.15,4.89v0.3h27.84C4504.27,451.228,4511.12,445.284,4511.12,436.559Zm-8.5,0c0,9.779-6.17,14.292-13.62,14.292h-2.48c-2.71,0-5.5-.075-5.5-4.814V423.319h8.28C4497.27,423.319,4502.62,428.133,4502.62,436.559Zm-2.86-26.1c0,7.071-4.14,12.487-9.78,12.487h-8.96V401.654c0-4.213,2.49-4.287,4.74-4.287h2.11C4496.9,397.367,4499.76,403.083,4499.76,410.456Z" transform="translate(-4235.94 -215.281)"/>
</svg>
