<svg xmlns="http://www.w3.org/2000/svg" width="1294" height="147" viewBox="0 0 1294 147">
  <defs>
    <style>
      .cls-1 {
        fill: #1e0e00;
        fill-rule: evenodd;
      }
    </style>
  </defs>
  <path class="cls-1" d="M3251.46,47.847c-1.1.959-1.26,2.326-1.26,3.861v43.61c0,2.937.53,4.9,7.29,4.9v0.3h-22.93v-0.3c6.17,0,7.22-1.958,7.22-4.9V49.449h-0.3l-20.07,51.067h-0.3l-19.92-51.067h-0.31V88.69c0,4.67.38,11.524,7.52,11.524v0.3h-15.86v-0.3c7.29,0,7.89-6.552,7.89-11.3V55.023c0-4.972,0-8.587-7.89-8.587v-0.3H3209l16.62,42.556,16.76-42.556h0.2v-0.29H3970v2H3251.46Zm-108.6,52.669v-0.3c6.76,0,7.29-1.958,7.29-4.9V51.407c0-3.389-.68-4.971-7.29-4.971v-0.3h34.88c1.8,0,5.19,0,6.01-1.129h0.38l1.95,17.926h-0.37c-2.93-11.3-5.79-16.345-18.27-16.345h-6.02c-1.42,0-2.85.6-2.85,4.82V72.12h5.71c5.11,0,10.68-2.862,10.75-12.729h0.3V85.15h-0.3c-0.07-9.866-5.64-12.654-10.75-12.654h-5.71V95.319c0,3.541,1.28,4.82,3.23,4.82h5.79c11.88,0,15.49-.452,20.15-19.282h0.3l-2.18,19.659h-43Zm-23.82-.3c5.79,0,6.46-1.279,6.46-2.485a5.632,5.632,0,0,0-.45-1.883l-5.94-14.913h-20.52l-2.78,6.93c-2.03,5.121-2.19,6.552-2.19,7.156,0,2.109.38,5.2,7.22,5.2v0.3H3084.9v-0.3c5.72,0,8.42-7.154,10.38-12.126L3112.5,45h0.22l20.83,50.916c1.35,3.239,3.08,4.293,6.54,4.293v0.3h-21.05v-0.3Zm-10.08-45.343L3098.74,80.48h20.22Zm-35.77-8.285h-1.88c-1.36,0-1.58.6-1.58,3.389V95.319c0,2.937.52,4.9,7.29,4.9v0.3h-23.01v-0.3c6.77,0,7.3-1.958,7.3-4.9V49.976c0-2.862-.15-3.389-1.66-3.389h-1.8c-11.28,0-13.68,4.67-16.99,16.345h-0.3L3042.51,45h0.3c0.68,0.979,3.23,1.129,4.59,1.129h36.24c1.42,0,3.98-.15,4.65-1.129h0.31l1.95,17.926h-0.3C3087.54,52.461,3085.06,46.586,3073.19,46.586ZM3012.3,101.5c-15.26,0-24.58-12.2-24.58-28.169,0-15.893,9.32-28.17,24.58-28.17,15.34,0,24.58,12.278,24.58,28.17C3036.88,89.294,3027.64,101.5,3012.3,101.5Zm0-55.963c-9.92,0-15.79,11.825-15.79,27.794,0,16.043,5.87,27.792,15.79,27.792,10,0,15.86-11.749,15.86-27.792C3028.16,57.357,3022.3,45.532,3012.3,45.532Zm-47.58,24.931c11.05,0,17.89,5.725,17.89,15.064,0,9.415-7.21,14.989-17.89,14.989h-27.29v-0.3c6.69,0,7.14-1.958,7.14-4.9V50.955c0-2.937-.45-4.519-7.14-4.519v-0.3h36.09c1.35,0,3.61-.15,4.28-1.129h0.3l1.96,17.926h-0.3c-2.78-11.072-5.87-16.345-18.12-16.345h-5.71c-1.88,0-2.86.754-2.86,4.368V70.463h11.65Zm-11.65,25.307c0,2.712.83,4.218,2.33,4.218h7.14c6.54,0,11.58-7.381,11.58-14.461s-3.16-14.688-11.58-14.688h-9.47V95.771Zm-0.52,53.611c0,6.477-5.11,11.449-12.93,13.181,8.64,1.13,14.73,5.951,14.73,13.407,0,10.4-10.45,16.043-20.45,16.043-8.42,0-19.02-4.369-19.02-16.043,0-2.636.98-4.67,3.38-4.67a3.727,3.727,0,0,1,3.69,3.841c0,2.335-.98,4.821-0.98,7.231,0,4.218,2.93,9.114,12.33,9.114,6.62,0,12.48-7.231,12.48-15.741,0-7.91-4.96-12.73-10.75-12.73h-6.39v-0.452h6.39c4.36,0,9.17-5.573,9.17-13.256,0-9.641-6.01-13.106-11.35-13.106-6.84,0-13.38,5.2-15.86,19.658h-0.3l1.57-20.411h0.38a3.049,3.049,0,0,0,3.23,2.485c3.76,0,6.92-2.561,13.76-2.561C2945.71,135.372,2952.55,140.193,2952.55,149.382Zm-38.94-49.168c5.79,0,6.47-1.279,6.47-2.485a5.885,5.885,0,0,0-.45-1.883l-5.94-14.913h-20.53l-2.78,6.93c-2.03,5.121-2.18,6.552-2.18,7.156,0,2.109.38,5.2,7.22,5.2v0.3h-15.94v-0.3c5.71,0,8.42-7.154,10.37-12.126L2907.07,45h0.23l20.82,50.916c1.35,3.239,3.08,4.293,6.54,4.293v0.3h-21.05v-0.3Zm-10.07-45.343L2893.31,80.48h20.23Zm-38.86,23.575a18.255,18.255,0,0,1-9.92-2.561V95.319c0,3.541,1.12,4.9,7.96,4.9v0.3h-23.68v-0.3c6.77,0,7.29-1.958,7.29-4.9V51.407c0-2.937-.52-4.971-7.29-4.971v-0.3h26.99c10.3,0,17.97,5.875,17.97,15.215C2884,70.764,2876.33,78.447,2864.68,78.447Zm-0.23-31.86h-4.43c-2.26,0-5.26.754-5.26,4.82V69.86c0,5.047,1.95,8.06,8.57,8.06,8.26,0,12.1-8.512,12.1-16.57C2875.43,53.44,2870.92,46.586,2864.45,46.586Zm-4.73,105.131c0,9.415-7.67,17.1-19.32,17.1a18.256,18.256,0,0,1-9.92-2.56v19.432c0,3.541,1.12,4.9,7.96,4.9v0.3h-23.68v-0.3c6.77,0,7.29-1.958,7.29-4.9V141.774c0-2.937-.52-4.97-7.29-4.97v-0.3h26.99C2852.05,136.5,2859.72,142.377,2859.72,151.717Zm-19.55-14.763h-4.43c-2.26,0-5.26.754-5.26,4.82v18.454c0,5.047,1.95,8.059,8.57,8.059,8.26,0,12.1-8.511,12.1-16.57C2851.15,143.808,2846.64,136.954,2840.17,136.954Zm-49.6-36.74c6.77,0,7.29-1.958,7.29-4.9V51.709c0-2.937-.52-5.273-7.29-5.273v-0.3h23.08v0.3c-6.84,0-7.37,2.335-7.37,5.273v43.61c0,2.937.53,4.9,7.37,4.9v0.3h-23.08v-0.3Zm0.83,90.67h-21.05v-0.3c5.79,0,6.46-1.28,6.46-2.486a5.636,5.636,0,0,0-.45-1.883l-5.94-14.913H2749.9l-2.78,6.93c-2.03,5.121-2.18,6.552-2.18,7.156,0,2.108.37,5.2,7.21,5.2v0.3h-15.93v-0.3c5.71,0,8.42-7.155,10.37-12.127l17.22-43.083h0.22l20.83,50.916c1.35,3.24,3.08,4.294,6.54,4.294v0.3Zm-31.13-45.645-10.22,25.609h20.22Zm11.28-44.723h-26.61v-0.3c6.76,0,7.29-1.958,7.29-4.9V51.709c0-3.541-1.2-5.273-7.29-5.273v-0.3h22.93v0.3c-6.17,0-7.22,1.732-7.22,5.273V70.463a41.031,41.031,0,0,1,9.47-1.356c12.33,0,19.4,7.306,19.4,16.42C2789.52,94.942,2781.85,100.516,2771.55,100.516Zm-3.83-30.58a27.984,27.984,0,0,0-7.07.9V95.771c0,2.937.9,4.218,2.4,4.218h7.3c6.46,0,10.6-7.381,10.6-14.461C2780.95,78.3,2776.51,69.936,2767.72,69.936Zm-49.69,30.278c6.17,0,7.22-1.958,7.22-4.9V49.449h-0.3l-20.07,51.067h-0.3l-19.92-51.067h-0.31V88.69c0,4.67.38,11.524,7.52,11.524v0.3h-15.86v-0.3c7.29,0,7.89-6.552,7.89-11.3V55.023c0-4.972,0-8.587-7.89-8.587v-0.3h16.46l16.62,42.556,16.76-42.556h15.11v0.3c-6.76,0-7.29,2.335-7.29,5.273v43.61c0,2.937.53,4.9,7.29,4.9v0.3h-22.93v-0.3Zm-18.26,36.59c-6.17,0-7.22,1.731-7.22,5.272v20.186h25.18V142.076c0-3.766-1.12-5.272-7.21-5.272v-0.3h22.93v0.3c-6.17,0-7.29,1.506-7.29,5.347v43.535c0,3.314.67,4.9,7.29,4.9v0.3h-22.93v-0.3c6.16,0,7.21-1.28,7.21-4.9V162.714h-25.18v22.972c0,3.616,1.05,4.9,7.22,4.9v0.3h-22.93v-0.3c6.76,0,7.29-1.958,7.29-4.9V142.151c0-3.616-1.2-5.347-7.29-5.347v-0.3h22.93v0.3Zm205.12-1.432h0.38l1.95,17.927h-0.37c-2.93-11.3-5.79-16.345-18.27-16.345h-6.01c-1.43,0-2.86.6-2.86,4.82v20.714h5.71c5.11,0,10.68-2.863,10.75-12.729h0.3v25.759h-0.3c-0.07-9.866-5.64-12.654-10.75-12.654h-5.71v22.822c0,3.541,1.28,4.821,3.23,4.821h5.79c11.88,0,15.49-.452,20.15-19.282h0.3L2907,190.884h-43v-0.3c6.76,0,7.29-1.958,7.29-4.9V141.774c0-3.389-.68-4.97-7.29-4.97v-0.3h34.88C2900.68,136.5,2904.07,136.5,2904.89,135.372Zm75.31,1.432c-5.33,0-6.46,1.431-6.46,2.937,0,1.808.52,2.561,1.73,4.971l13.68,27.191,12.03-28.547a7.114,7.114,0,0,0,.6-2.41c0-1.807-1.28-4.142-6.54-4.142v-0.3h15.49v0.3c-4.14,0-7.37,2.635-9.02,6.552l-16.09,37.585c-3.84,7.607-5.64,11-11.51,11-4.73,0-9.99-2.711-9.99-8.511,0-2.712,1.65-5.047,4.06-5.047,2.7,0,4.13,2.26,4.13,5.2,0,0.9-.75,2.108-0.75,3.539,0,1.733.82,4.068,4.21,4.068,2.93,0,6.31-2.937,9.24-10.244l-17.89-35.852c-2.7-5.423-4.21-8.135-9.92-8.285v-0.3h23v0.3Zm30.22,41.953c2.4,0,3.75,2.26,3.75,4.519,0,1.054-.3,2.485-0.3,4.444,0,1.507.46,2.712,1.96,2.712,4.29,0,11.73-7,11.73-45.645,0-3.54-1.58-7.983-8.57-7.983v-0.3h44.35v0.3c-6.09,0-7.14.9-7.14,4.518v44.816c0,3.314,1.05,4.444,7.14,4.444v0.3h-22.7v-0.3c6.09,0,7.14-1.054,7.14-4.444V140.57c0-3.014-.75-3.616-5.64-3.616h-8.72c-3.61,0-5.41,4.293-5.41,7.909,0,19.357-1.36,46.925-14.44,46.925-4.51,0-7.14-4.746-7.14-8.437C3006.43,180.941,3008.01,178.757,3010.42,178.757Zm79.83-41.953c-6.17,0-7.22,1.731-7.22,5.272v18.755a41.009,41.009,0,0,1,9.47-1.356c12.33,0,19.4,7.306,19.4,16.42,0,9.414-7.67,14.989-17.97,14.989h-26.62v-0.3c6.77,0,7.3-1.958,7.3-4.9V142.151c0-3.616-1.2-5.347-7.3-5.347v-0.3h22.94v0.3Zm-7.22,49.334c0,2.938.9,3.917,2.4,4.218,2.41,0.076,4.82.151,7.3,0.151,6.46,0,10.6-7.532,10.6-14.612,0-7.231-4.44-15.591-13.24-15.591a27.933,27.933,0,0,0-7.06.9v24.931Zm31.49-50.766c0.68,0.98,3.23,1.13,4.59,1.13h36.23c1.43,0,3.99-.15,4.66-1.13h0.3l1.96,17.927h-0.3c-2.71-10.47-5.19-16.345-17.07-16.345h-1.88c-1.35,0-1.58.6-1.58,3.389v45.343c0,2.938.53,4.9,7.3,4.9v0.3h-23.01v-0.3c6.77,0,7.29-1.958,7.29-4.9V140.343c0-2.862-.15-3.389-1.65-3.389h-1.8c-11.28,0-13.69,4.67-17,16.345h-0.3l1.96-17.927h0.3Zm52.47,43.083,17.21-43.083h0.23l20.82,50.916c1.36,3.24,3.09,4.294,6.54,4.294v0.3h-21.05v-0.3c5.79,0,6.47-1.28,6.47-2.486a5.889,5.889,0,0,0-.45-1.883l-5.94-14.913H3170.3l-2.79,6.93c-2.03,5.121-2.18,6.552-2.18,7.156,0,2.108.38,5.2,7.22,5.2v0.3h-15.94v-0.3C3162.32,190.582,3165.03,183.427,3166.99,178.455Zm23.68-7.607-10-25.609-10.22,25.609h20.22Zm37.73,14.838V140.343c0-2.862-.15-3.389-1.66-3.389h-1.8c-11.28,0-13.68,4.67-16.99,16.345h-0.3l1.95-17.927h0.3c0.68,0.98,3.24,1.13,4.59,1.13h36.24c1.42,0,3.98-.15,4.66-1.13h0.3l1.95,17.927h-0.3c-2.7-10.47-5.19-16.345-17.06-16.345h-1.88c-1.36,0-1.58.6-1.58,3.389v45.343c0,2.938.53,4.9,7.29,4.9v0.3h-23v-0.3C3227.87,190.582,3228.4,188.624,3228.4,185.686Z" transform="translate(-2676 -45)"/>
</svg>
