<svg xmlns="http://www.w3.org/2000/svg" width="1295" height="146" viewBox="0 0 1295 146">
  <defs>
    <style>
      .cls-1 {
        fill: #1e0e00;
        fill-rule: evenodd;
      }
    </style>
  </defs>
  <path class="cls-1" d="M3451.64,217.828l1.65,14.981h-0.38c-2.93-11.221-5.79-16.233-18.28-16.233h-6.01c-1.43,0-2.86.6-2.86,4.787v20.573h5.72c5.11,0,10.68-2.843,10.75-12.643h0.3v25.584h-0.3c-0.07-9.8-5.64-12.567-10.75-12.567h-5.72v22.666c0,3.517,1.28,4.788,3.23,4.788h5.79c11.89,0,15.5-.449,20.17-19.151h0.3l-2.19,19.525h-43.03v-0.3c6.78,0,7.3-1.945,7.3-4.863V221.363c0-3.366-.68-4.937-7.3-4.937v-0.3h34.91c1.81,0,5.19,0,6.02-1.122h0.37l0.1,0.834H4254v1.989H3451.64Zm-54.61,9.969-17.3,43.463h-0.3l-20.39-50.495c-1.13-2.843-3.46-4.339-6.84-4.339v-0.3h20.76v0.3c-5.27,0-5.87,1.347-5.87,2.543a4.825,4.825,0,0,0,.45,1.871l15.8,40.4,13.24-33.364c0.98-2.544,1.73-4.489,1.73-6.807,0-3.517-2.78-4.564-6.62-4.639v-0.3h15.57v0.3C3401.77,216.426,3398.91,223.084,3397.03,227.8Zm-93.34,42.341v-0.3c6.77,0,7.29-1.945,7.29-4.863V221.363c0-3.366-.68-4.937-7.29-4.937v-0.3h34.9c1.81,0,5.19,0,6.02-1.122h0.37l1.96,17.8h-0.38c-2.93-11.221-5.79-16.233-18.28-16.233h-6.01c-1.43,0-2.86.6-2.86,4.787v20.573h5.72c5.11,0,10.68-2.843,10.75-12.643h0.3v25.584h-0.3c-0.07-9.8-5.64-12.567-10.75-12.567h-5.72v22.666c0,3.517,1.28,4.788,3.23,4.788h5.79c11.89,0,15.5-.449,20.17-19.151h0.3l-2.19,19.525h-43.02Zm-21.36,35.143c-5.34,0-11.21,3.666-11.21,10.7,0,17.506,33.03,8,33.03,28.877,0,11.295-11.13,16.009-20.31,16.009-7.9,0-11.96-3.217-16.02-3.217-2.26,0-3.09,2.1-3.31,3.291h-0.46l-0.82-21.245h0.3c2.03,14.738,12.11,20.8,20.31,20.8,6.92,0,13.54-4.039,13.54-11.37,0-17.505-32.27-8.005-32.27-28.951,0-10.548,8.12-15.261,17.22-15.261,8.73,0,10.46,3.516,14.6,3.516,1.73,0,2.86-2.1,3.08-3.591h0.3l1.36,19.749h-0.3C3298.66,310.443,3290.16,305.281,3282.33,305.281Zm-6.62-35.442c6.77,0,7.37-1.945,7.37-4.863V221.738c0-2.918-.53-5.237-7.37-5.237v-0.374h23.17v0.3c-6.85,0-7.37,2.319-7.37,5.237v43.313c0,2.918.52,4.863,7.37,4.863v0.3h-23.17v-0.3Zm-27.67,0c6.17,0,7.22-1.271,7.22-4.863V242.161h-25.2v22.815c0,3.592,1.05,4.863,7.22,4.863v0.3h-22.94v-0.3c6.77,0,7.29-1.945,7.29-4.863V221.738c0-3.592-1.2-5.312-7.29-5.312v-0.3h22.94v0.3c-6.17,0-7.22,1.72-7.22,5.237v20.049h25.2V221.663c0-3.741-1.13-5.237-7.22-5.237v-0.3h22.94v0.3c-6.17,0-7.3,1.5-7.3,5.312v43.238c0,3.292.68,4.863,7.3,4.863v0.3h-22.94v-0.3Zm-30.84,36.04h36.26c1.43,0,3.98-.149,4.66-1.121h0.3l1.96,17.8h-0.3c-2.71-10.4-5.19-16.234-17.08-16.234h-1.88c-1.36,0-1.58.6-1.58,3.367v45.034c0,2.918.53,4.862,7.3,4.862v0.3h-23.02v-0.3c6.77,0,7.29-1.944,7.29-4.862V309.7c0-2.843-.15-3.367-1.65-3.367h-1.81c-11.28,0-13.69,4.639-17,16.234h-0.3l1.96-17.8h0.3C3213.29,305.73,3215.84,305.879,3217.2,305.879Zm-28.96-34.619c-15.19,0-24.67-11.52-24.67-26.856,0-14.887,8.12-29.25,24.37-29.25,6.09,0,10.99,3.441,13.84,3.441,1.43,0,2.49-1.2,2.86-3.366h0.38l1.73,20.722h-0.38c-3.08-14.737-11.58-20.273-17.6-20.273-10.38,0-16.32,10.773-16.32,27.754,0,17.505,7.37,27.081,16.92,27.081s15.42-8.08,16.33-18.329c0.07-1.122.67-1.571,1.12-1.571a1.163,1.163,0,0,1,1.21,1.272A19.74,19.74,0,0,1,3188.24,271.26Zm-46.55-1.421c5.79,0,6.47-1.271,6.47-2.469a5.809,5.809,0,0,0-.45-1.87l-5.95-14.812h-20.53l-2.79,6.883c-2.03,5.086-2.18,6.507-2.18,7.107,0,2.094.38,5.161,7.22,5.161v0.3h-15.95v-0.3c5.72,0,8.43-7.106,10.39-12.044l17.22-42.79h0.23l20.84,50.569c1.35,3.218,3.08,4.265,6.54,4.265v0.3h-21.06v-0.3ZM3131.61,224.8l-10.23,25.435h20.23Zm-44.53,136.06c-7.9,0-11.96-3.217-16.02-3.217-2.26,0-3.08,2.1-3.31,3.291h-0.45l-0.83-21.245h0.3c2.03,14.738,12.11,20.8,20.31,20.8,6.92,0,13.54-4.039,13.54-11.37,0-17.505-32.27-8.005-32.27-28.951,0-10.548,8.13-15.261,17.23-15.261,8.72,0,10.46,3.516,14.59,3.516,1.73,0,2.86-2.1,3.09-3.591h0.3l1.35,19.749h-0.3c-2.71-14.138-11.21-19.3-19.03-19.3-5.34,0-11.21,3.666-11.21,10.7,0,17.506,33.03,8,33.03,28.877C3107.4,356.15,3096.26,360.864,3087.08,360.864Zm-48.66-90.726v-0.3c6.77,0,7.29-1.945,7.29-4.863V221.363c0-3.366-.67-4.937-7.29-4.937v-0.3h34.9c1.81,0,5.19,0,6.02-1.122h0.38l1.95,17.8h-0.37c-2.94-11.221-5.8-16.233-18.28-16.233H3057c-1.43,0-2.86.6-2.86,4.787v20.573h5.72c5.11,0,10.68-2.843,10.75-12.643h0.3v25.584h-0.3c-0.07-9.8-5.64-12.567-10.75-12.567h-5.72v22.666c0,3.517,1.28,4.788,3.23,4.788h5.8c11.88,0,15.49-.449,20.16-19.151h0.3l-2.18,19.525h-43.03Zm-12.93-42.94-14.14,44.062h-0.3L2997.06,227.2l-13.99,44.062h-0.3l-16.85-50.495c-0.98-2.917-3.47-4.339-6.93-4.339v-0.3h21.29v0.3c-4.89,0-6.17.973-6.17,2.768a7.366,7.366,0,0,0,.38,1.646l12.19,38,13.61-43.837h0.3l14.3,43.837,10.23-31.719a23.924,23.924,0,0,0,1.05-6.058c0-3.068-1.65-4.415-6.77-4.639v-0.3h16.25v0.3C3029.03,216.426,3027.22,221.738,3025.49,227.2Zm-19.33,92.3c0,8.3-7.75,13.391-19.41,13.764,17.91,3.142,16.4,25.734,23.92,25.734,1.13,0,2.19-.673,3.16-2.394,0.16,0.15.31,0.15,0.46,0.3a6.935,6.935,0,0,1-6.32,3.741c-16.78,0-12.87-27.381-24.68-27.381h-6.54v21.47c0,2.918.52,4.862,7.29,4.862v0.3h-23.02v-0.3c6.78,0,7.3-1.944,7.3-4.862V311.116c0-2.917-.52-4.937-7.3-4.937v-0.3h26.78C2998.41,305.879,3006.16,310.518,3006.16,319.5Zm-19.56-13.167h-6.32c-2.63,0-3.53,1.871-3.53,4.863V332.81h7.45c8.72,0,13.46-5.535,13.46-13.091S2992.92,306.328,2986.6,306.328Zm70.55-1.57h0.38l1.95,17.8h-0.37c-2.94-11.221-5.79-16.234-18.28-16.234h-6.02c-1.43,0-2.86.6-2.86,4.788v20.572h5.72c5.11,0,10.68-2.842,10.76-12.642h0.3V344.63h-0.3c-0.08-9.8-5.65-12.567-10.76-12.567h-5.72v22.666c0,3.517,1.28,4.788,3.24,4.788h5.79c11.89,0,15.5-.449,20.16-19.151h0.3l-2.18,19.525h-43.03v-0.3c6.77,0,7.3-1.944,7.3-4.862V311.116c0-3.366-.68-4.937-7.3-4.937v-0.3h34.91C3052.94,305.879,3056.33,305.879,3057.15,304.758Zm77.7,1.421c-6.85,0-7.38,2.319-7.38,5.237v32.316c0,9.8,7,15.71,15.12,15.71,8.65,0,15.27-6.134,15.27-15.71V314.108c0-3.516-.67-7.929-7.97-7.929v-0.3h16.32v0.3c-7.59,0-7.89,4.413-7.89,7.929v29.624c0,11.671-8.96,17.281-19.64,17.281-10.98,0-19.63-5.91-19.63-17.281V311.416c0-2.918-.53-5.237-7.3-5.237v-0.3h23.1v0.3Zm58.58,0c-6.84,0-7.37,2.02-7.37,4.937v43.613c0,3.517,1.28,4.788,3.23,4.788h5.8c12.18,0,15.95-.3,20.16-19.151h0.3c-0.68,6.509-1.43,13.016-2.18,19.525h-43.03v-0.3c6.77,0,7.29-1.944,7.29-4.862V311.116c0-2.917-.52-4.937-7.29-4.937v-0.3h23.09v0.3Z" transform="translate(-2959 -215)"/>
</svg>
