<svg xmlns="http://www.w3.org/2000/svg" width="1361" height="147" viewBox="0 0 1361 147">
  <defs>
    <style>
      .cls-1 {
        fill: #1e0e00;
        fill-rule: evenodd;
      }
    </style>
  </defs>
  <path class="cls-1" d="M798.36,218.006v-2H1760v2H798.36Zm1.178,14.944c-2.935-11.308-5.8-16.359-18.293-16.359h-6.022c-1.429,0-2.86.6-2.86,4.825v20.73h5.72c5.12,0,10.691-2.864,10.764-12.739h0.3v25.78h-0.3c-0.073-9.875-5.644-12.664-10.764-12.664h-5.72v22.841c0,3.542,1.28,4.824,3.236,4.824h5.8c11.894,0,15.507-.452,20.173-19.3h0.3l-2.185,19.675H756.63v-0.3c6.775,0,7.3-1.961,7.3-4.9V221.416c0-3.393-.678-4.976-7.3-4.976v-0.3h34.928c1.807,0,5.194,0,6.023-1.132h0.375l1.958,17.942h-0.376ZM744.6,224.431v29.852c0,11.759-8.958,17.413-19.649,17.413-10.989,0-19.646-5.955-19.646-17.413V221.717c0-2.939-.527-5.277-7.3-5.277v-0.3h23.11v0.3c-6.851,0-7.377,2.338-7.377,5.277v32.566c0,9.874,7,15.829,15.131,15.829,8.657,0,15.28-6.18,15.28-15.829V224.431c0-3.542-.676-7.991-7.978-7.991v-0.3H752.5v0.3C744.9,216.44,744.6,220.889,744.6,224.431ZM695.906,361.005h-43.06v-0.3c6.776,0,7.3-1.96,7.3-4.9V311.856c0-3.393-.678-4.975-7.3-4.975v-0.3h34.929c1.807,0,5.193,0,6.022-1.131h0.376l1.957,17.942h-0.375c-2.936-11.308-5.8-16.359-18.293-16.359H671.44c-1.432,0-2.86.6-2.86,4.825v20.73h5.72c5.12,0,10.691-2.864,10.766-12.74h0.3v25.781h-0.3c-0.075-9.875-5.646-12.664-10.766-12.664h-5.72V355.8c0,3.543,1.28,4.824,3.237,4.824h5.8c11.893,0,15.506-.452,20.173-19.3h0.3Zm-44.188-90.44v-0.3c6.775,0,7.3-1.961,7.3-4.9V221.416c0-2.94-.527-4.976-7.3-4.976v-0.3h23.11v0.3c-6.851,0-7.377,2.036-7.377,4.976v43.948c0,3.542,1.28,4.824,3.237,4.824h5.8c12.195,0,15.958-.3,20.173-19.3h0.3c-0.677,6.558-1.431,13.117-2.182,19.675H651.718Zm-46.587,90.44v-0.3c6.776,0,7.3-1.96,7.3-4.9V311.856c0-2.94-.526-4.975-7.3-4.975v-0.3h23.111v0.3c-6.851,0-7.378,2.035-7.378,4.975V355.8c0,3.543,1.28,4.824,3.238,4.824h5.8c12.195,0,15.957-.3,20.173-19.3h0.3c-0.678,6.559-1.431,13.117-2.182,19.675h-43.06Zm22.736-90.741c5.8,0,6.473-1.282,6.473-2.488a5.787,5.787,0,0,0-.451-1.885l-5.947-14.925H607.391l-2.786,6.935c-2.031,5.126-2.183,6.558-2.183,7.161,0,2.111.376,5.2,7.227,5.2v0.3h-15.96v-0.3c5.722,0,8.431-7.161,10.389-12.137l17.238-43.119h0.226L642.4,265.967c1.354,3.242,3.085,4.3,6.549,4.3v0.3H627.867v-0.3Zm-10.089-45.381L607.54,250.514h20.251ZM592.5,227.9l-17.313,43.8h-0.3l-20.4-50.883c-1.129-2.864-3.463-4.373-6.851-4.373v-0.3h20.777v0.3c-5.269,0-5.871,1.358-5.871,2.564a4.862,4.862,0,0,0,.451,1.885L578.8,261.6l13.249-33.621c0.978-2.563,1.731-4.523,1.731-6.86,0-3.542-2.787-4.6-6.625-4.674v-0.3h15.583v0.3C597.238,216.44,594.378,223.149,592.5,227.9ZM525.89,361.986c-15.282,0-24.618-12.213-24.618-28.194,0-15.9,9.336-28.193,24.618-28.193,15.355,0,24.615,12.288,24.615,28.193C550.505,349.773,541.245,361.986,525.89,361.986Zm0-56.01c-9.938,0-15.809,11.835-15.809,27.816,0,16.057,5.871,27.816,15.809,27.816,10.011,0,15.882-11.759,15.882-27.816C541.772,317.811,535.9,305.976,525.89,305.976Zm-47.422-35.411v-0.3c6.776,0,7.3-1.961,7.3-4.9V221.416c0-3.393-.678-4.976-7.3-4.976v-0.3H513.4c1.806,0,5.193,0,6.022-1.132h0.375l1.958,17.942h-0.375c-2.936-11.308-5.8-16.359-18.294-16.359h-6.022c-1.429,0-2.86.6-2.86,4.825v20.73h5.72c5.12,0,10.691-2.864,10.765-12.739h0.3v25.78h-0.3c-0.074-9.875-5.645-12.664-10.765-12.664H494.2v22.841c0,3.542,1.28,4.824,3.236,4.824h5.8c11.894,0,15.507-.452,20.174-19.3h0.3l-2.185,19.675H478.468ZM465.537,227.3l-14.153,44.4h-0.3l-14-44.4-14,44.4h-0.3l-16.862-50.883c-0.978-2.94-3.463-4.373-6.927-4.373v-0.3h21.3v0.3c-4.893,0-6.173.98-6.173,2.79a7.412,7.412,0,0,0,.378,1.659l12.193,38.294,13.626-44.175h0.3l14.3,44.175,10.239-31.962a24.306,24.306,0,0,0,1.054-6.107c0-3.091-1.658-4.447-6.776-4.674v-0.3H475.7v0.3C469.075,216.44,467.268,221.793,465.537,227.3Zm-19.5,94.511c0,9.424-7.677,17.112-19.346,17.112a18.31,18.31,0,0,1-9.936-2.562V355.8c0,3.543,1.129,4.9,7.98,4.9v0.3H401.024v-0.3c6.776,0,7.3-1.96,7.3-4.9V311.856c0-2.94-.526-4.975-7.3-4.975v-0.3h27.024C438.362,306.579,446.039,312.459,446.039,321.806Zm-19.57-14.775h-4.443c-2.257,0-5.269.754-5.269,4.825v18.469c0,5.05,1.958,8.066,8.583,8.066,8.28,0,12.12-8.519,12.12-16.585C437.46,313.891,432.942,307.031,426.469,307.031Zm64.8-1.583h0.376L493.6,323.39h-0.375c-2.936-11.308-5.8-16.359-18.293-16.359h-6.022c-1.432,0-2.86.6-2.86,4.825v20.73h5.72c5.119,0,10.691-2.864,10.766-12.74h0.3v25.781h-0.3c-0.075-9.875-5.647-12.664-10.766-12.664h-5.72V355.8c0,3.543,1.28,4.824,3.237,4.824h5.8c11.893,0,15.506-.452,20.173-19.3h0.3l-2.182,19.675h-43.06v-0.3c6.776,0,7.3-1.96,7.3-4.9V311.856c0-3.393-.678-4.975-7.3-4.975v-0.3h34.929C487.055,306.579,490.441,306.579,491.27,305.448Zm109.581,16.358c0,9.424-7.677,17.112-19.346,17.112a18.31,18.31,0,0,1-9.936-2.562V355.8c0,3.543,1.129,4.9,7.98,4.9v0.3H555.836v-0.3c6.776,0,7.3-1.96,7.3-4.9V311.856c0-2.94-.526-4.975-7.3-4.975v-0.3H582.86C593.174,306.579,600.851,312.459,600.851,321.806ZM581.28,307.031h-4.442c-2.258,0-5.269.754-5.269,4.825v18.469c0,5.05,1.958,8.066,8.583,8.066,8.279,0,12.119-8.519,12.119-16.585C592.271,313.891,587.754,307.031,581.28,307.031Z" transform="translate(-399 -215)"/>
</svg>
