<svg xmlns="http://www.w3.org/2000/svg" width="964" height="1080" viewBox="0 0 964 1080">
  <defs>
    <style>
      .cls-1 {
        fill: #fff;
        fill-rule: evenodd;
      }
    </style>
  </defs>
  <path class="cls-1" d="M1416.27,1440h-31.28c105.28-67.32,169.06-198,182.45-350.83,1.63-24.46,14.68-34.24,24.47-34.24,17.94,0,26.1,13.05,26.1,27.72C1613.84,1236.94,1533.66,1366.56,1416.27,1440ZM1376.53,360H1559.1l31.18,375.327h-8.16C1542.7,545.982,1462.48,426.342,1376.53,360ZM846.472,898.39c0,274.31,82.618,459.29,206.038,541.61H925.036C753.5,1344.51,654,1152.18,654,919.588,654,693.51,739.51,472.979,910.53,360h107.13C907.043,454.493,846.472,644.629,846.472,898.39Z" transform="translate(-654 -360)"/>
</svg>
