<svg xmlns="http://www.w3.org/2000/svg" width="1146" height="1080" viewBox="0 0 1146 1080">
  <defs>
    <style>
      .cls-1 {
        fill: #fff;
        fill-rule: evenodd;
      }
    </style>
  </defs>
  <path class="cls-1" d="M2310.01,1079.99V1080H1845.82v-0.01c124.79,0,146.1-25.57,146.1-97.773V523.443H1482.07V982.217c0,72.2,21.31,97.773,146.11,97.773V1080H1163.99v-0.01c136.97,0,147.62-39.11,147.62-97.773V112.8c0-72.2-24.35-106.8-147.62-106.8V-0.011h464.19V6.006c-124.8,0-146.11,34.6-146.11,105.292v403.12h509.85V111.3c0-75.208-22.83-105.292-146.1-105.292V-0.011h464.19V6.006c-124.8,0-147.63,30.084-147.63,106.8V982.217C2162.38,1048.4,2176.08,1079.99,2310.01,1079.99Z" transform="translate(-1164)"/>
</svg>
