<svg xmlns="http://www.w3.org/2000/svg" width="900" height="1080" viewBox="0 0 900 1080">
  <defs>
    <style>
      .cls-1 {
        fill: #fff;
        fill-rule: evenodd;
      }
    </style>
  </defs>
  <path id="ShapeP" class="cls-1" d="M1694.22,645.285c-67.72,0-141.47-13.537-198.66-51.142V982.222c0,70.7,22.57,97.768,159.53,97.768V1080H1181.01v-0.01c135.45,0,145.99-39.1,145.99-97.768V105.284c0-58.663-10.54-99.276-145.99-99.276V-0.009h540.3c206.19,0,359.7,117.326,359.7,303.845C2081.01,491.859,1927.5,645.285,1694.22,645.285ZM1689.71,9.016h-88.8c-45.15,0-105.35,15.042-105.35,96.268V473.809c0,100.78,39.13,160.947,171.57,160.947,165.55,0,242.31-169.972,242.31-330.92C1909.44,145.9,1819.14,9.016,1689.71,9.016Z" transform="translate(-1181)"/>
</svg>
