<svg xmlns="http://www.w3.org/2000/svg" width="1721" height="1080" viewBox="0 0 1721 1080">
  <defs>
    <style>
      .cls-1 {
        fill: #fff;
        fill-rule: evenodd;
      }
    </style>
  </defs>
  <path class="cls-1" d="M1724.73,645.105c-67.64,0-141.29-13.543-198.41-51.161v388.22c0,70.726,22.55,97.806,159.33,97.806V1080H1212.18v-0.03c135.28,0,145.8-39.12,145.8-97.806V244.573C1309.53,92.409,1243.01,8.6,1042.34,8.6h-37.57C977.712,8.6,973.2,20.643,973.2,76.317V982.164c0,58.686,10.522,97.806,145.8,97.806V1080H659.063v-0.03c135.276,0,145.8-39.12,145.8-97.806V76.317c0-57.18-3.006-67.713-33.067-67.713H735.719C510.26,8.6,462.162,101.9,396.027,335.131h-6.012L426.585,0H1772.73c195.28,7.7,338.28,123.331,338.28,303.531C2111.01,491.622,1957.7,645.105,1724.73,645.105ZM1720.22,8.6h-88.68c-45.09,0-105.22,15.047-105.22,96.3V473.566c0,100.816,39.08,161.006,171.35,161.006,165.34,0,242-170.035,242-331.041C1939.67,145.535,1849.48,8.6,1720.22,8.6Z" transform="translate(-390)"/>
</svg>
